<svg fill="#ffffff" height="512" viewBox="0 0 60 60" width="512" xmlns="http://www.w3.org/2000/svg"><g id="Page-1"  fill-rule="evenodd"><g id="011---Message-Marketing"  fill-rule="nonzero" transform="translate(0 -1)"><path id="Shape" d="m55 9h-12v-4c.0133702-2.16656434-1.7042797-3.94808604-3.8698887-4.01379284-2.165609-.06570679-3.9881063 1.60840323-4.1061113 3.77179284-.4898213 1.4839622-1.1474099 2.90717186-1.96 4.242h-28.064c-2.76005315.00330612-4.99669388 2.2399468-5 5v33c.00330612 2.7600532 2.23994685 4.9966939 5 5h3v6c-.00015281 1.0211662.5191431 1.972283 1.37823783 2.5243126.85909467.5520295 1.93999417.6291522 2.86876217.2046874l19.031-8.729h23.722c2.7600532-.0033061 4.9966939-2.2399468 5-5v-33c-.0033061-2.7600532-2.2399468-4.99669388-5-5zm-16-6c1.1045695 0 2 .8954305 2 2v36c0 1.1045695-.8954305 2-2 2s-2-.8954305-2-2v-36c0-1.1045695.8954305-2 2-2zm-4 33.349c-2.6554025-4.790376-7.5391686-7.9268808-13-8.349h-5v-10h5c5.4608314-.4221192 10.3445975-3.558624 13-8.349zm-23-8.349h-1c-2.76142375 0-5-2.2385763-5-5s2.23857625-5 5-5h4v10zm1 9h6v5c0 1.6568542-1.3431458 3-3 3s-3-1.3431458-3-3zm6-2h-6v-5h6zm39 12c0 1.6568542-1.3431458 3-3 3h-36c-.5522847 0-1 .4477153-1 1s.4477153 1 1 1h7.481l-15.064 6.91c-.3099253.1387388-.6689259.1117678-.954643-.0717202-.2857171-.1834881-.4595899-.4987294-.462357-.8382798v-6h5c.5522847 0 1-.4477153 1-1s-.4477153-1-1-1h-10c-1.65685425 0-3-1.3431458-3-3v-33c0-1.6568542 1.34314575-3 3-3h26.621c-2.3738366 2.9299983-5.8589509 4.7412-9.621 5h-11c-3.86599319.0000001-6.99999985 3.1340068-6.99999985 7s3.13400666 6.9999999 6.99999985 7v12c.0000001 2.7614237 2.2385763 4.9999999 5 4.9999999s4.9999999-2.2385762 5-4.9999999v-12h1c.379 0 9.3.187 13.027 11.242.1435207 2.1426289 1.9567157 3.7875794 4.1031575 3.7224296 2.1464418-.0651497 3.8565343-1.8170406 3.8698425-3.9644296v-30h12c1.6568542 0 3 1.3431458 3 3z"/><path id="Shape" d="m30.657 17.161c-2.5808825 1.7013577-5.5698034 2.6815525-8.657 2.839h-2c-.5522847 0-1 .4477153-1 1s.4477153 1 1 1h2c3.4746346-.1509929 6.842951-1.2432329 9.745-3.16.2999245-.1943525.4733803-.5339494.4550283-.8908678-.0183519-.3569185-.2257236-.6769341-.544-.8395-.3182764-.162566-.6991038-.1429847-.9990283.0513678z"/><path id="Shape" d="m52.606 13.081-7 3c-.3334726.1373777-.5671342.4436793-.6115002.8016015-.0443659.3579222.1074384.7120039.3972771.9266436.2898386.2146397.6728001.2565784 1.0022231.1097549l7-3c.4993742-.2225705.7274312-.8049312.5119982-1.3074258-.2154329-.5024946-.7944852-.7388258-1.2999982-.5305742z"/><path id="Shape" d="m46 24h7c.5522847 0 1-.4477153 1-1s-.4477153-1-1-1h-7c-.5522847 0-1 .4477153-1 1s.4477153 1 1 1z"/><path id="Shape" d="m53.394 31.081-7-3c-.505513-.2082516-1.0845653.0280796-1.2999982.5305742-.215433.5024946.012624 1.0848553.5119982 1.3074258l7 3c.329423.1468235.7123845.1048848 1.0022231-.1097549.2898387-.2146397.441643-.5687214.3972771-.9266436-.044366-.3579222-.2780276-.6642238-.6115002-.8016015z"/></g></g></svg>