<svg height="25px" viewBox="0 0 512 512" width="25px" xmlns="http://www.w3.org/2000/svg"><path fill="#ffffff" d="m339.320312 303.519531-135-90c-4.601562-3.070312-10.519531-3.355469-15.398437-.746093-4.875 2.613281-7.921875 7.695312-7.921875 13.226562v180c0 5.53125 3.046875 10.613281 7.921875 13.226562 4.878906 2.609376 10.796875 2.324219 15.398437-.746093l135-90c4.171876-2.78125 6.679688-7.464844 6.679688-12.480469s-2.507812-9.699219-6.679688-12.480469zm-128.320312 74.453125v-123.945312l92.957031 61.972656zm0 0"/><path fill="#ffffff" d="m497 121h-15v-45c0-8.285156-6.714844-15-15-15h-15v-46c0-8.285156-6.714844-15-15-15h-362c-8.285156 0-15 6.714844-15 15v46h-15c-8.285156 0-15 6.714844-15 15v45h-15c-8.285156 0-15 6.714844-15 15v361c0 8.285156 6.714844 15 15 15h482c8.285156 0 15-6.714844 15-15v-361c0-8.285156-6.714844-15-15-15zm-407-91h332v31h-332zm-30 61h392v30h-392zm422 391h-452v-331h452zm0 0"/></svg>