<?xml version="1.0"?>
<svg xmlns="http://www.w3.org/2000/svg" viewBox="0 0 512 512" width="30px" height="30px"><g id="outline"><path fill="#ffffff" d="M80.77,444.083a67.525,67.525,0,0,0,47.23,19.9V464a8,8,0,0,0,8,8H280a8,8,0,0,0,8-8V331.15a27.225,27.225,0,0,0,34.327-19.473,121.823,121.823,0,0,0,2.424-46.989l-2.58-18.058,16.98-7.277a8,8,0,0,0,4.16-10.6l-11.734-26.4,39.836-39.462,22.4-8.4a8,8,0,0,0,2.96-1.949l49-51a8,8,0,0,0-.343-11.42l-39-36a8,8,0,0,0-11.248.392l-49,52a7.986,7.986,0,0,0-1.767,2.956l-7.381,22.143-25.8,24.973a8,8,0,0,0-4.7-4.175S256.839,136,256,136V114.315l17.1-25.654a31.3,31.3,0,0,0-52.082-34.722l-1.3,1.955h-18.66a42.118,42.118,0,0,0-36.116,63.787l9.851,16.418a7.964,7.964,0,0,0-1.324.312l-48,16a8,8,0,0,0-3.98,2.939l-40,56L49.413,256.258A37.482,37.482,0,0,0,59.892,309.75a67.561,67.561,0,0,0-23.749,44.521l-.91,8.185a67.671,67.671,0,0,0,19.5,55.592ZM320,230.153V215.7l5.4,12.143Zm29.563-88.4a7.99,7.99,0,0,0,2.026-3.219l7.443-22.327,42.36-44.954,27.185,25.094-42.087,43.8-22.3,8.362a8.017,8.017,0,0,0-2.821,1.807l-36.743,36.4-6.473-14.566ZM272,456H168.054a67.862,67.862,0,0,0,30.716-33.846L208,400h64Zm0-72H214.666l.7-1.681a29.505,29.505,0,0,1,22.511-17.855A45.808,45.808,0,0,0,272,338.578Zm-7.129-160.282,6.357,15.893L208.14,302.105l-13.668-10.251ZM181.51,282.133a20.076,20.076,0,0,0-3.775-1.943l-24.547-5.455a45.529,45.529,0,0,0,3.823-8.471l1.917-5.751A29.963,29.963,0,0,1,187.389,240h4.871a29.8,29.8,0,0,1,21.213,8.787l1.225,1.225Zm87.371-17.676-1.933,15.463c-.866-1.037-1.764-2.05-2.726-3.012l-3.937-3.936ZM304,209.3s.027,23.459.081,23.833l4.831,33.82a105.9,105.9,0,0,1-2.107,40.845,11.266,11.266,0,0,1-19.636,4.423,8.041,8.041,0,0,0-1.432-2.035l-3.1-4.655a11.276,11.276,0,0,1-1.807-7.651l7.111-56.886a7.994,7.994,0,0,0-.51-3.963l-12.086-30.214-.023-.059-.92-2.3,16.115-6.446.056-.023,8.524-3.409ZM180.165,82.341a26.241,26.241,0,0,1,20.894-10.447H224a8,8,0,0,0,6.656-3.563l3.678-5.517a15.3,15.3,0,0,1,25.457,16.972l-16.072,24.108H208a8,8,0,0,0-5.657,2.343l-16.755,16.754-6.925-11.542A26.017,26.017,0,0,1,180.165,82.341ZM240,119.894V144a24,24,0,0,1-48,0v-4.793l19.314-19.313ZM133,166.767l43.84-14.614a40,40,0,0,0,78.324,0l42.961,14.321.868,1.954L283.214,183.7l-22.185,8.874a8,8,0,0,0-4.457,10.4l1.878,4.695L226.2,238.883l-1.409-1.41A45.7,45.7,0,0,0,192.26,224h-4.871A45.934,45.934,0,0,0,144,254.749V224a8,8,0,0,0-14.656-4.438l-10.587,15.881L98.449,215.135Zm-5,83.655v18.716l-10.867-2.415ZM59.067,283.284a21.486,21.486,0,0,1,3.366-17.726l26.588-37.224,20.685,20.685L97.344,267.562a8,8,0,0,0,4.921,12.248l70.315,15.625,24.566,18.424-10.28,15.419-15.6,5.2-12.611-18.916a8,8,0,0,0-5.341-3.453L76.406,299.291A21.514,21.514,0,0,1,59.067,283.284Zm89.577,77.758L136,348.451l15.413-14.918,9.936,14.9.01.013Zm3.442,25.945-8.207,8.511L99.171,350.906l8.007-8.447ZM51.136,364.222l.909-8.184a51.636,51.636,0,0,1,27.117-40.067l57.487,9.581-12.043,11.656-11.973-11.872a8,8,0,0,0-11.439.178l-19,20.046a8,8,0,0,0,.157,11.168l55.99,55.843a8,8,0,0,0,5.65,2.336h.078a8,8,0,0,0,5.681-2.447l19.33-20.046a8,8,0,0,0-.126-11.234l-8.948-8.872,26.185-25.939,8.339-2.78a8,8,0,0,0,4.126-3.151l12.6-18.894,37.666-37.312,3.99,3.99a30.145,30.145,0,0,1,8.486,25.456l-1.38,9.655a29.892,29.892,0,0,1-24.766,25.349A45.418,45.418,0,0,0,200.6,376.166L184,416a51.864,51.864,0,0,1-48,32h-7.147a51.663,51.663,0,0,1-36.77-15.23L66.048,406.734A51.745,51.745,0,0,1,51.136,364.222Z"/></g></svg>
