<svg enable-background="new 0 0 24 24" height="25px" viewBox="0 0 24 24" width="25px" xmlns="http://www.w3.org/2000/svg"><path fill="#ffffff" d="m21.5 24h-19c-1.379 0-2.5-1.122-2.5-2.5v-19c0-1.378 1.121-2.5 2.5-2.5h19c1.379 0 2.5 1.122 2.5 2.5v19c0 1.378-1.121 2.5-2.5 2.5zm-19-23c-.827 0-1.5.673-1.5 1.5v19c0 .827.673 1.5 1.5 1.5h19c.827 0 1.5-.673 1.5-1.5v-19c0-.827-.673-1.5-1.5-1.5z"/><path fill="#ffffff" d="m14.5 19c-.097 0-.193-.028-.277-.084l-5.874-3.916h-2.349c-.552 0-1-.449-1-1v-4c0-.551.448-1 1-1h2.349l5.874-3.916c.154-.102.351-.111.514-.025.161.087.263.256.263.441v13c0 .185-.102.354-.264.441-.074.039-.155.059-.236.059zm-8.5-9v4h2.5c.099 0 .195.029.277.084l5.223 3.482v-11.132l-5.223 3.482c-.082.055-.178.084-.277.084z"/><path fill="#ffffff" d="m17 15.36c-.158 0-.314-.075-.411-.215-.157-.227-.101-.539.127-.696.804-.557 1.284-1.472 1.284-2.449s-.48-1.892-1.284-2.449c-.228-.157-.284-.469-.127-.696.156-.228.469-.283.695-.126 1.074.743 1.716 1.966 1.716 3.271s-.642 2.528-1.716 3.271c-.087.06-.185.089-.284.089z"/></svg>