<svg class="svg-icon" style="width: 1em;height: 1em;vertical-align: middle;fill: currentColor;overflow: hidden;" viewBox="0 0 1024 1024" version="1.1" xmlns="http://www.w3.org/2000/svg"><path d="M448 192a32 32 0 0 1 32 32v224a32 32 0 0 1-32 32H224a32 32 0 0 1-32-32V224a32 32 0 0 1 32-32h224z m0 32H224v224h224V224zM448 544a32 32 0 0 1 32 32v224a32 32 0 0 1-32 32H224a32 32 0 0 1-32-32v-224a32 32 0 0 1 32-32h224z m0 32H224v224h224v-224zM800 192a32 32 0 0 1 32 32v224a32 32 0 0 1-32 32h-224a32 32 0 0 1-32-32V224a32 32 0 0 1 32-32h224z m0 32h-224v224h224V224zM800 544a32 32 0 0 1 32 32v224a32 32 0 0 1-32 32h-224a32 32 0 0 1-32-32v-224a32 32 0 0 1 32-32h224z m0 32h-224v224h224v-224z" fill="#666666" /></svg>