<?xml version="1.0"?>
<svg xmlns="http://www.w3.org/2000/svg" viewBox="0 -59 512 511" width="200px" height="200px"><path d="m441 226.058594v-40.558594c0-102.007812-82.988281-185-185-185s-185 82.992188-185 185v40.558594c-39.847656 4.21875-71 38.023437-71 78.972656 0 43.792969 35.628906 79.421875 79.421875 79.421875h1.578125c.355469 0 .703125-.019531 1.050781-.054687 6.050781 5.546874 14.109375 8.9375 22.949219 8.9375 18.746094 0 34-15.25 34-34v-120c0-18.746094-15.253906-34-34-34-4.988281 0-9.726562 1.089843-14 3.027343v-22.863281c0-90.980469 74.019531-165 165-165s165 74.019531 165 165v22.863281c-4.273438-1.9375-9.011719-3.027343-14-3.027343-18.746094 0-34 15.253906-34 34v120c0 18.75 15.253906 34 34 34 8.839844 0 16.898438-3.390626 22.949219-8.9375.347656.035156.695312.054687 1.050781.054687h1.578125c43.792969 0 79.421875-35.628906 79.421875-79.421875 0-40.949219-31.152344-74.753906-71-78.972656zm-370 137.800781c-28.792969-4.101563-51-28.921875-51-58.828125 0-29.910156 22.207031-54.726562 51-58.828125zm34-138.523437c7.71875 0 14 6.28125 14 14v120c0 7.71875-6.28125 14-14 14s-14-6.28125-14-14v-120c0-7.71875 6.28125-14 14-14zm302 148c-7.71875 0-14-6.28125-14-14v-120c0-7.71875 6.28125-14 14-14s14 6.28125 14 14v120c0 7.71875-6.28125 14-14 14zm34-9.476563v-117.660156c28.792969 4.105469 51 28.921875 51 58.828125 0 29.910156-22.207031 54.730468-51 58.832031zm0 0" fill="#FFFFFF"/><path d="m176 286.332031c-5.523438 0-10 4.476563-10 10v54.671875c0 5.523438 4.476562 10 10 10s10-4.476562 10-10v-54.671875c0-5.523437-4.476562-10-10-10zm0 0" fill="#FFFFFF"/><path d="m176 249.671875c-2.628906 0-5.210938 1.070313-7.070312 2.929687-1.859376 1.859376-2.929688 4.441407-2.929688 7.070313s1.070312 5.210937 2.929688 7.070313c1.859374 1.859374 4.441406 2.929687 7.070312 2.929687s5.210938-1.070313 7.070312-2.929687c1.859376-1.871094 2.929688-4.441407 2.929688-7.070313s-1.070312-5.210937-2.929688-7.070313c-1.859374-1.859374-4.441406-2.929687-7.070312-2.929687zm0 0" fill="#FFFFFF"/><path d="m256 257.671875c-5.523438 0-10 4.476563-10 10v83.332031c0 5.523438 4.476562 10 10 10s10-4.476562 10-10v-83.332031c0-5.523437-4.476562-10-10-10zm0 0" fill="#FFFFFF"/><path d="m336 279.003906c-5.523438 0-10 4.476563-10 10v40.667969c0 5.519531 4.476562 10 10 10s10-4.480469 10-10v-40.667969c0-5.523437-4.476562-10-10-10zm0 0" fill="#FFFFFF"/><path d="m216 224.03125c-5.523438 0-10 4.476562-10 10v142c0 5.523438 4.476562 10 10 10s10-4.476562 10-10v-142c0-5.523438-4.476562-10-10-10zm0 0" fill="#FFFFFF"/><path d="m296 364.449219c-2.628906 0-5.210938 1.070312-7.070312 2.933593-1.859376 1.859376-2.929688 4.4375-2.929688 7.066407 0 2.632812 1.070312 5.210937 2.929688 7.070312 1.859374 1.863281 4.441406 2.929688 7.070312 2.929688s5.210938-1.066407 7.070312-2.929688c1.859376-1.859375 2.929688-4.4375 2.929688-7.070312 0-2.628907-1.070312-5.207031-2.929688-7.066407-1.859374-1.859374-4.441406-2.933593-7.070312-2.933593zm0 0" fill="#FFFFFF"/><path d="m296 249.054688c-5.523438 0-10 4.476562-10 10v82.609374c0 5.523438 4.476562 10 10 10s10-4.476562 10-10v-82.609374c0-5.523438-4.476562-10-10-10zm0 0" fill="#FFFFFF"/></svg>
