<?xml version="1.0" encoding="utf-8"?>
<!-- Generator: Adobe Illustrator 22.1.0, SVG Export Plug-In . SVG Version: 6.00 Build 0)  -->
<svg version="1.1" id="Layer_1" xmlns="http://www.w3.org/2000/svg" xmlns:xlink="http://www.w3.org/1999/xlink" x="0px" y="0px"
	 viewBox="0 0 275.1 275" style="enable-background:new 0 0 275.1 275;" xml:space="preserve">
<style type="text/css">
	.st0{fill:#74D0F2;}
	.st1{fill:none;stroke:#FFFFFF;stroke-width:15;stroke-linecap:round;stroke-linejoin:round;stroke-miterlimit:10;}
</style>
<path class="st0" d="M134.4,73.5l63.7-27.3c0.6-0.3,1.3,0.1,1.4,0.8l5.2,41.8c0.1,0.4-0.2,0.9-0.6,1l-65.8,27.3
	c-0.6,0.3-1.3-0.2-1.4-0.9l-3.1-41.8C133.8,74,134,73.6,134.4,73.5z"/>
<path class="st1" d="M248.8,267.5H26.2c-10.3,0-18.7-8.4-18.7-18.7V26.2c0-10.3,8.4-18.7,18.7-18.7h222.7c10.3,0,18.7,8.4,18.7,18.7
	v222.7C267.5,259.1,259.1,267.5,248.8,267.5z"/>
<line class="st1" x1="41.3" y1="60.7" x2="84.3" y2="60.7"/>
<line class="st1" x1="41.3" y1="102.6" x2="84.3" y2="102.6"/>
<line class="st1" x1="191.8" y1="175.6" x2="234.7" y2="175.6"/>
<line class="st1" x1="191.8" y1="217.5" x2="234.7" y2="217.5"/>
<path class="st1" d="M131.6,121.9l72.5-32c0.4-0.2,0.6-0.5,0.6-0.9V42.9c0-0.7-0.7-1.2-1.4-0.9l-71.1,31.3c-0.4,0.2-0.6,0.5-0.6,0.9
	v117.4c0,9.8-1.2,22-6.4,30.2C118,233,98.9,246.2,79,232.5c-34.4-23.6-1.1-82.7,49.4-51.6"/>
</svg>
