<?xml version="1.0" encoding="utf-8"?>
<!-- Generator: Adobe Illustrator 22.1.0, SVG Export Plug-In . SVG Version: 6.00 Build 0)  -->
<svg version="1.1" xmlns="http://www.w3.org/2000/svg" xmlns:xlink="http://www.w3.org/1999/xlink" x="0px" y="0px"
	 viewBox="0 0 255.6 436.8" style="enable-background:new 0 0 255.6 436.8;" xml:space="preserve">
<style type="text/css">
	.st0{fill:#F6D45A;}
	.st1{fill:#F2A83B;}
	.st2{fill:#FFFFFF;}
	.st3{fill:none;stroke:#FFFFFF;stroke-width:10;stroke-linecap:round;stroke-linejoin:round;stroke-miterlimit:10;}
</style>
<g id="Capa_1">
	<g>
		<ellipse class="st0" cx="103.8" cy="349.1" rx="32.1" ry="24"/>
		<path class="st1" d="M111.8,357.1c-17.6,0-31.9-10.7-32.1-23.8c0,0,0-0.1-0.1,0c-5,4.2-7.9,9.8-7.9,15.8c0,13.3,14.4,24,32.1,24
			s32.1-10.8,32.1-24V349C129.9,354,121.3,357.1,111.8,357.1z"/>
		<path class="st2" d="M127.8,181.3C57.4,181.3,0,238.6,0,309.1s57.4,127.7,127.8,127.7S255.6,379.5,255.6,309
			S198.2,181.3,127.8,181.3z M127.8,421.8c-62.2,0-112.7-50.6-112.7-112.7s50.5-112.8,112.7-112.8S240.5,246.9,240.5,309
			S190,421.8,127.8,421.8z"/>
		<path class="st2" d="M170,250.1c-11.8-3.1-22.1-5.8-27.5-16.6c-1.6-3.1-5.1-4.8-8.4-4c-3.4,0.8-5.8,3.8-5.8,7.3v87.4
			c0,0,0,0.1-0.1,0c-6.8-4.3-15.3-6.8-24.4-6.8c-21.8,0-39.6,14.2-39.6,31.6s17.8,31.6,39.6,31.6s39.6-14.2,39.6-31.6v-93
			c0,0,0-0.1,0.1,0c7.3,4.6,15.6,6.8,22.8,8.7c16.3,4.3,26.1,6.9,26.2,28.1c0,3.7,2.6,7.1,6.2,7.7c4.6,0.8,8.8-2.9,8.8-7.4
			C207.5,259.9,186.7,254.5,170,250.1z M103.8,365.7c-13.3,0-24.5-7.6-24.5-16.5c0-9,11.2-16.5,24.5-16.5s24.5,7.6,24.5,16.5
			S117.1,365.7,103.8,365.7z"/>
	</g>
	<g>
		<path class="st3" d="M245,45.7c-16.4-12.9-34.5-23-54.1-29.9C170.7,8.6,149.4,5,127.8,5S84.9,8.6,64.7,15.8
			C45.2,22.7,27,32.8,10.6,45.7c-6,4.8-7,13.5-2.3,19.5c4.8,6,13.5,7,19.5,2.3c28.7-22.7,63.2-34.7,99.9-34.7s71.2,12,99.9,34.7
			c6,4.7,14.8,3.7,19.5-2.3C252,59.2,251,50.4,245,45.7z"/>
		<path class="st3" d="M89.5,157.6c11-8.7,24.3-13.3,38.3-13.3s27.3,4.6,38.3,13.3c6,4.7,14.8,3.7,19.5-2.3c4.8-6,3.7-14.8-2.3-19.5
			c-15.9-12.6-35.2-19.3-55.6-19.3s-39.6,6.7-55.6,19.3c-6,4.8-7,13.5-2.3,19.5C74.7,161.3,83.4,162.3,89.5,157.6z"/>
		<path class="st3" d="M193.5,80.3c5,3,9.9,6.3,14.5,10c5.7,4.5,6.6,12.8,2.2,18.5c-4.5,5.7-12.8,6.6-18.5,2.2
			c-18.4-14.5-40.4-22.2-63.9-22.2s-45.6,7.6-64,22.1c-2.3,1.8-5.2,2.8-8.1,2.8c-4.1,0-7.8-1.8-10.3-5c-4.5-5.7-3.5-13.9,2.2-18.5
			c23-18.2,50.8-27.8,80.2-27.8c10.5,0,20.8,1.2,30.9,3.7"/>
	</g>
</g>
<g id="Layer_1">
</g>
</svg>
